<?xml version="1.0" encoding="utf-8"?>
<!-- Generator: Adobe Illustrator 25.4.1, SVG Export Plug-In . SVG Version: 6.00 Build 0)  -->
<svg version="1.1" id="레이어_1" xmlns="http://www.w3.org/2000/svg" xmlns:xlink="http://www.w3.org/1999/xlink" x="0px"
	 y="0px" viewBox="0 0 474 47" style="enable-background:new 0 0 474 47;" xml:space="preserve">
<style type="text/css">
	.st0{fill:#222222;}
</style>
<path class="st0" d="M405.1,0C391.7,0,382,10.6,382,23.5v0.1c0,12.9,9.6,23.4,22.9,23.4S428,36.4,428,23.5v-0.1
	C428.1,10.5,418.5,0,405.1,0z M418.1,23.6c0,7.5-6.1,13.5-13.6,13.4c-7.5,0-13.5-6.1-13.4-13.6v-0.1c0-7.5,6.1-13.5,13.6-13.4
	c7.5,0,13.5,6.1,13.4,13.6l0,0V23.6z M364,1.1h9.9V46H364V1.1z M355.4,36.9v9h-34.6V1.2h9.9v35.2h24.8L355.4,36.9L355.4,36.9z
	 M474,1.1V46h-9.6l-20.2-28.2V46h-9.6V1.2h9.6l20.2,28.5l0,0V1.2L474,1.1z M301.2,10.1h-14.6V46h-9.9V10.2h-14.6v-9h39L301.2,10.1z
	 M186.3,9.9v8.6h23.4v8.8h-23.4v9.8h24.5v8.8h-34.4V1.1h34.4v8.8L186.3,9.9z M248.3,30.8c-1.9,3.9-5.9,6.4-10.3,6.3
	c-7.1,0-12.4-5.8-12.4-13.6v-0.1c0-7.7,5.3-13.4,12.3-13.4c4.2-0.2,8.1,2.1,9.9,5.9h11.5C256.6,6.3,247.9-0.2,238,0
	c-13.1,0-22.6,10.6-22.6,23.5v0.1c0,12.9,9.4,23.4,22.4,23.4c10.9,0,19.1-6.9,21.5-16.2H248.3z M168.5,1.1v31.4v0.1
	c-0.1,7.9-7.5,14.3-16.8,14.4h-0.3c-1.2,0-2.4-0.1-3.6-0.3c-6-1.1-10.8-4.8-12.7-9.7c-0.5-1.2-0.8-2.5-0.8-3.9l0,0
	c0-0.1,0-0.4,0-0.6l0,0l0,0l0,0l0,0v-0.3h10c0,0.1,0,0.2,0,0.3s0,0.5,0.1,0.8s0.1,0.4,0.2,0.7c0.9,2.1,2.8,3.5,5,3.8
	c0.5,0.1,0.9,0.1,1.4,0.1h0.1c3.3,0,6-2.1,6.5-4.8c0.1-0.4,0.1-1.2,0.1-1.2v-9.5l0,0V10.2l0,0v-9L168.5,1.1z M108.9,0
	c-13.3,0-23,10.6-23,23.5v0.1c0,12.9,9.6,23.4,22.9,23.4s23.1-10.6,23.1-23.5v-0.1C131.9,10.5,122.4,0,108.9,0L108.9,0z M122.4,23.6
	c0,7.5-6.1,13.5-13.6,13.4c-7.5,0-13.5-6.1-13.4-13.6v-0.1c0-7.5,6.1-13.5,13.6-13.4c7.5,0,13.5,6.1,13.4,13.6l0,0V23.6z M21.6,1.1
	H0V46h9.9V31.6h11.8c8.4,0,15.2-6.8,15.2-15.3C36.8,8,30,1.2,21.6,1.1L21.6,1.1z M20.7,22.6H9.8V10h10.9c3.5,0,6.3,2.8,6.3,6.3
	S24.2,22.6,20.7,22.6L20.7,22.6L20.7,22.6z M71.6,30.6c7.9-3,11.9-11.8,8.9-19.6c-2.3-6-8-9.9-14.3-9.9H42.5V46h9.9V31.6h8.4
	L70.9,46h11.5L71.6,30.6z M64.4,22.6h-12V10h12c3.5,0,6.3,2.8,6.3,6.3C70.8,19.8,67.9,22.6,64.4,22.6L64.4,22.6L64.4,22.6z"/>
</svg>
